<?xml version="1.0" standalone="no"?>
<!DOCTYPE svg PUBLIC "-//W3C//DTD SVG 20010904//EN"
 "http://www.w3.org/TR/2001/REC-SVG-20010904/DTD/svg10.dtd">
<svg version="1.0" xmlns="http://www.w3.org/2000/svg"
 width="400.000000pt" height="400.000000pt" viewBox="0 0 400.000000 400.000000"
 preserveAspectRatio="xMidYMid meet">
<metadata>
Created by potrace 1.14, written by Peter Selinger 2001-2017
</metadata>
<g transform="translate(0.000000,400.000000) scale(0.100000,-0.100000)"
fill="#000000" stroke="none">
<path d="M31 3976 c-8 -10 -10 -534 -9 -1977 l3 -1964 1970 0 1970 0 3 1955
c1 1075 0 1965 -3 1978 l-5 22 -1959 0 c-1636 0 -1960 -2 -1970 -14z m3879
-1966 l0 -1920 -1915 0 -1915 0 0 1920 0 1920 1915 0 1915 0 0 -1920z"/>
<path d="M443 2816 c-119 -38 -176 -126 -152 -237 15 -69 58 -112 169 -167 75
-37 96 -52 98 -71 6 -41 -7 -69 -37 -79 -24 -9 -28 -14 -23 -37 4 -26 7 -27
46 -21 89 15 157 78 177 163 24 105 -22 176 -151 236 -105 48 -120 61 -120
104 0 26 6 36 25 45 19 9 25 19 25 45 0 37 1 37 -57 19z"/>
<path d="M3402 2815 c-136 -42 -211 -168 -199 -331 11 -150 95 -256 220 -279
34 -7 37 -5 37 17 0 13 -9 31 -20 41 -19 16 -20 29 -20 245 0 216 1 230 20
247 19 17 29 76 13 74 -5 0 -27 -6 -51 -14z"/>
<path d="M3480 2798 c0 -22 7 -37 20 -46 19 -12 20 -23 20 -241 0 -215 -1
-229 -20 -246 -23 -21 -27 -65 -5 -65 40 0 126 44 160 82 61 67 79 118 79 228
1 88 -2 101 -32 162 -41 84 -97 127 -194 152 -26 6 -28 4 -28 -26z"/>
<path d="M520 2790 c0 -19 5 -30 14 -30 27 0 79 -54 102 -107 13 -29 30 -53
37 -53 29 0 37 25 37 112 0 96 -10 112 -53 89 -18 -9 -31 -9 -66 4 -62 22 -71
20 -71 -15z"/>
<path d="M813 2803 c-20 -8 -15 -41 7 -48 19 -6 20 -15 20 -245 0 -230 -1
-239 -20 -245 -24 -8 -27 -40 -4 -49 9 -3 65 -6 125 -6 l109 0 0 300 0 300
-112 -1 c-62 0 -119 -3 -125 -6z"/>
<path d="M1070 2781 c0 -23 5 -30 28 -36 46 -11 73 -35 94 -81 15 -36 24 -45
41 -42 21 3 22 9 25 96 l3 92 -96 0 -95 0 0 -29z"/>
<path d="M1347 2804 c-14 -15 -6 -41 16 -51 13 -6 53 -64 99 -144 42 -74 110
-192 151 -264 l76 -130 65 -3 66 -3 0 98 -1 98 -113 200 -113 200 -119 3 c-66
1 -123 -1 -127 -4z"/>
<path d="M1707 2803 c-14 -13 -6 -32 23 -61 28 -29 30 -35 30 -114 1 -77 3
-85 30 -118 l29 -35 1 122 0 122 34 28 c28 22 33 30 25 45 -8 15 -23 18 -88
18 -43 0 -81 -3 -84 -7z"/>
<path d="M1963 2803 c-19 -7 -15 -31 7 -45 19 -12 20 -24 20 -249 0 -234 0
-237 -22 -251 -20 -13 -21 -17 -9 -32 13 -15 31 -16 145 -13 160 6 129 6 270
0 165 -6 191 3 147 51 -10 12 -48 99 -85 195 l-66 174 38 46 c21 25 55 54 75
64 21 9 37 23 37 30 0 29 -25 37 -122 37 -82 0 -100 -3 -105 -16 -4 -11 3 -23
20 -36 15 -11 27 -29 27 -41 0 -12 -30 -64 -66 -117 l-65 -96 36 -114 c35
-106 36 -115 20 -126 -13 -10 -23 -10 -41 -2 l-24 11 0 238 c0 229 1 238 20
244 24 8 27 40 4 49 -19 7 -243 7 -261 -1z"/>
<path d="M2613 2803 c-20 -7 -15 -41 6 -48 18 -6 20 -19 23 -218 3 -192 5
-215 23 -247 27 -45 97 -80 174 -87 l61 -6 0 28 c0 17 -10 37 -25 51 l-25 23
0 223 c0 212 1 224 20 236 24 15 26 38 4 46 -19 7 -243 7 -261 -1z"/>
<path d="M2973 2803 c-21 -8 -15 -31 12 -49 39 -25 47 -73 43 -250 -3 -180
-11 -204 -74 -230 -28 -12 -34 -20 -34 -44 0 -34 6 -36 57 -15 93 39 104 71
112 318 l6 199 28 20 c30 22 35 43 11 52 -18 7 -143 7 -161 -1z"/>
<path d="M1133 2628 c-6 -7 -13 -25 -17 -40 -3 -15 -15 -32 -26 -38 -27 -14
-27 -61 0 -78 11 -6 26 -28 34 -47 32 -76 66 -29 66 90 0 41 -4 85 -10 99 -10
28 -31 34 -47 14z"/>
<path d="M1398 2469 l-3 -171 -35 -30 c-34 -28 -34 -30 -16 -44 12 -9 43 -14
82 -14 101 0 117 15 64 62 l-30 26 0 134 c0 126 -1 135 -25 171 -14 20 -28 37
-30 37 -2 0 -5 -77 -7 -171z"/>
<path d="M290 2411 c-13 -25 -13 -161 0 -181 6 -10 26 -15 57 -16 26 0 67 -4
91 -8 l42 -9 0 32 c0 21 -5 31 -15 31 -27 0 -83 61 -106 115 -24 59 -49 72
-69 36z"/>
<path d="M1212 2388 c-7 -7 -12 -18 -12 -25 0 -23 -62 -83 -94 -91 -24 -6 -32
-14 -34 -35 l-3 -28 98 3 98 3 3 50 c5 78 -6 135 -27 135 -9 0 -22 -5 -29 -12z"/>
<path d="M1349 1817 c-20 -10 -25 -23 -31 -72 -5 -33 -10 -65 -12 -71 -2 -6
-32 -16 -65 -23 -56 -11 -65 -16 -101 -62 -57 -73 -52 -99 21 -99 32 0 35 -5
17 -24 -88 -89 -298 -323 -298 -332 0 -14 179 121 322 243 105 90 101 90 112
2 6 -38 3 -48 -14 -64 -20 -18 -26 -58 -14 -89 4 -11 19 -16 45 -16 55 0 68
25 76 142 l6 95 56 -37 c31 -21 63 -45 70 -53 11 -14 9 -17 -13 -23 -24 -6
-25 -8 -19 -69 6 -71 1 -77 -71 -88 -49 -8 -116 -51 -116 -76 0 -21 19 -31 57
-31 l25 0 -23 -37 c-12 -21 -42 -63 -67 -93 -42 -52 -78 -117 -69 -126 21 -21
170 103 215 179 26 44 34 36 47 -50 9 -54 0 -80 -29 -87 -23 -6 -23 -6 -8 -61
8 -30 20 -55 26 -54 31 2 95 112 96 167 0 27 -3 26 48 2 52 -25 138 -27 171
-3 23 16 23 17 5 31 -10 7 -52 29 -92 48 -105 48 -132 69 -132 105 0 23 6 31
34 43 60 25 57 49 -11 81 -34 16 -35 19 -29 57 4 26 2 45 -6 56 -11 13 -10 14
10 8 19 -6 25 -2 38 29 20 50 8 84 -42 113 -30 18 -50 22 -89 19 -27 -3 -58
-8 -68 -12 -17 -7 -18 -4 -12 31 9 49 18 58 82 78 57 19 63 26 56 73 -4 26
-11 33 -37 39 -17 4 -43 6 -58 5 -25 -2 -28 1 -28 29 0 62 -38 98 -81 77z"/>
<path d="M2459 1799 c-10 -10 -19 -30 -19 -44 0 -14 -9 -44 -21 -66 -24 -47
-20 -57 17 -40 18 8 30 8 38 2 7 -6 32 -10 57 -10 24 0 70 -3 101 -7 39 -4 74
-1 110 10 52 15 54 15 91 -10 21 -14 42 -35 46 -47 14 -37 41 -288 41 -379 0
-154 -38 -278 -85 -278 -13 0 -27 -4 -30 -10 -3 -5 -14 -10 -25 -10 -23 0 -35
-29 -14 -37 12 -4 14 -14 9 -39 -7 -39 3 -43 43 -18 60 35 141 176 166 286 19
80 20 287 2 404 -14 94 -39 155 -76 189 -24 21 -19 21 -232 12 l-107 -4 5 26
c7 34 -20 68 -64 81 -27 7 -36 6 -53 -11z"/>
<path d="M2200 1655 c-14 -37 -12 -67 6 -93 20 -29 43 -28 74 3 14 14 45 40
70 58 l45 32 -50 7 c-27 4 -69 10 -92 14 -40 6 -43 4 -53 -21z"/>
<path d="M2664 1570 c-11 -4 -61 -57 -112 -116 -51 -60 -116 -136 -144 -169
-29 -34 -66 -76 -81 -95 l-28 -35 4 53 c3 44 10 59 38 88 26 27 36 49 44 92 9
48 13 57 30 55 37 -5 61 6 73 32 10 21 9 28 -8 45 -39 39 -105 17 -120 -40 -6
-22 -22 -45 -41 -59 l-32 -24 6 30 c3 16 7 36 9 44 2 10 -8 15 -33 17 -82 7
-129 -103 -129 -302 0 -137 15 -207 56 -255 32 -39 59 -47 81 -26 14 15 15 21
4 49 -35 85 -40 106 -41 176 0 71 16 158 27 147 2 -3 -1 -39 -7 -81 -13 -86
-4 -135 31 -172 28 -29 49 -16 49 30 1 49 40 129 100 205 l55 69 10 -32 c10
-29 13 -31 53 -28 l42 3 -59 -58 c-89 -89 -91 -136 -9 -191 22 -15 52 -35 67
-44 34 -23 57 -23 125 3 51 20 75 45 68 73 -2 5 4 16 11 25 32 36 39 61 27 95
-14 43 -54 61 -117 52 -43 -6 -45 -5 -31 11 9 10 23 33 32 51 13 24 32 40 72
58 44 20 54 28 54 49 0 29 -32 41 -72 26 -23 -9 -26 -7 -31 19 -15 72 -97 34
-97 -45 0 -18 -8 -26 -36 -35 -19 -7 -38 -9 -41 -6 -15 15 88 139 132 161 37
17 43 33 23 53 -14 14 -24 14 -54 2z m-40 -373 c-21 -10 -49 -29 -61 -40 -33
-30 -28 -14 7 27 23 26 38 34 62 34 l31 -1 -39 -20z m134 -74 c-2 -10 -28 -25
-72 -40 -84 -28 -86 -28 -86 -4 0 14 14 25 53 40 66 25 110 27 105 4z"/>
<path d="M1152 1307 c-6 -7 -18 -43 -27 -82 -16 -70 -26 -85 -57 -85 -23 0
-118 -68 -118 -84 0 -20 23 -36 52 -36 15 0 28 -4 28 -8 0 -5 -21 -35 -46 -68
-64 -82 -88 -130 -69 -138 8 -3 17 -1 20 4 4 6 14 10 24 10 10 0 43 25 74 55
31 30 57 55 59 55 2 0 4 -32 4 -71 -1 -57 2 -74 16 -83 28 -17 53 15 54 72 2
91 2 92 27 92 30 0 60 32 51 54 -6 16 -15 20 -47 16 -16 -1 -16 2 -4 32 8 21
28 41 55 56 23 13 42 27 42 32 0 5 -19 19 -41 32 l-41 23 5 53 c3 30 3 60 0
68 -6 17 -47 18 -61 1z"/>
</g>
</svg>
